<svg width="24" height="23" viewBox="0 0 24 23" fill="none" xmlns="http://www.w3.org/2000/svg">
<g filter="url(#filter0_d_19_15)">
<path d="M19.56 10.36L13 7.44V6C13 5.45 12.55 5 12 5C11.45 5 11 4.55 11 4C11 3.45 11.45 3 12 3C12.55 3 13 3.45 13 4H15C15 2.16 13.34 0.699996 11.44 1.05C10.26 1.27 9.29 2.22 9.06 3.4C8.76 4.96 9.66 6.34 11 6.82V7.45L4.44 10.37C3.56 10.75 3 11.62 3 12.57V12.58C3 13.92 4.08 15 5.42 15H7V21H17V15H18.58C19.92 15 21 13.92 21 12.58V12.57C21 11.62 20.44 10.75 19.56 10.36ZM18.58 13H17V12H7V13H5.42C5.19 13 5 12.81 5 12.57C5 12.4 5.1 12.25 5.25 12.19L12 9.19L18.75 12.19C18.8387 12.2291 18.9113 12.2976 18.9556 12.3838C18.9998 12.4701 19.0131 12.569 18.9932 12.6639C18.9733 12.7588 18.9214 12.844 18.8462 12.9051C18.7709 12.9663 18.677 12.9998 18.58 13V13Z" fill="#328AFF"/>
</g>
<defs>
<filter id="filter0_d_19_15" x="-1" y="0.997864" width="26" height="28.0021" filterUnits="userSpaceOnUse" color-interpolation-filters="sRGB">
<feFlood flood-opacity="0" result="BackgroundImageFix"/>
<feColorMatrix in="SourceAlpha" type="matrix" values="0 0 0 0 0 0 0 0 0 0 0 0 0 0 0 0 0 0 127 0" result="hardAlpha"/>
<feOffset dy="4"/>
<feGaussianBlur stdDeviation="2"/>
<feComposite in2="hardAlpha" operator="out"/>
<feColorMatrix type="matrix" values="0 0 0 0 0 0 0 0 0 0 0 0 0 0 0 0 0 0 0.25 0"/>
<feBlend mode="normal" in2="BackgroundImageFix" result="effect1_dropShadow_19_15"/>
<feBlend mode="normal" in="SourceGraphic" in2="effect1_dropShadow_19_15" result="shape"/>
</filter>
</defs>
</svg>
