<svg width="24" height="18" viewBox="0 0 24 18" fill="none" xmlns="http://www.w3.org/2000/svg">
<g filter="url(#filter0_d_19_13)">
<path d="M21 0C19.34 0 18 1.34 18 3V7C18 7.55 17.55 8 17 8V4C17 2.34 15.66 1 14 1H10C8.34 1 7 2.34 7 4H9C9 3.45 9.45 3 10 3H14C14.55 3 15 3.45 15 4V5H6C3.79 5 2 6.79 2 9V12H17V10C18.66 10 20 8.66 20 7V3C20 2.45 20.45 2 21 2H22V0H21Z" fill="#328AFF"/>
</g>
<defs>
<filter id="filter0_d_19_13" x="-2" y="0" width="28" height="20" filterUnits="userSpaceOnUse" color-interpolation-filters="sRGB">
<feFlood flood-opacity="0" result="BackgroundImageFix"/>
<feColorMatrix in="SourceAlpha" type="matrix" values="0 0 0 0 0 0 0 0 0 0 0 0 0 0 0 0 0 0 127 0" result="hardAlpha"/>
<feOffset dy="4"/>
<feGaussianBlur stdDeviation="2"/>
<feComposite in2="hardAlpha" operator="out"/>
<feColorMatrix type="matrix" values="0 0 0 0 0 0 0 0 0 0 0 0 0 0 0 0 0 0 0.25 0"/>
<feBlend mode="normal" in2="BackgroundImageFix" result="effect1_dropShadow_19_13"/>
<feBlend mode="normal" in="SourceGraphic" in2="effect1_dropShadow_19_13" result="shape"/>
</filter>
</defs>
</svg>
