<svg width="24" height="24" viewBox="0 0 24 24" fill="none" xmlns="http://www.w3.org/2000/svg">
<g filter="url(#filter0_d_19_19)">
<path d="M23.316 2.05511C21.556 1.47811 17 -0.0148878 17 0.000112203C17 0.795762 16.6839 1.55882 16.1213 2.12143C15.5587 2.68404 14.7957 3.00011 14 3.00011C13.2044 3.00011 12.4413 2.68404 11.8787 2.12143C11.3161 1.55882 11 0.795762 11 0.000112203C11 -0.0148878 6.44401 1.47811 4.68301 2.05511C4.48349 2.12051 4.30987 2.24753 4.18714 2.41789C4.0644 2.58824 3.99888 2.79315 4.00001 3.00311V6.71911C4.00006 6.87101 4.0347 7.0209 4.10132 7.15741C4.16794 7.29392 4.26478 7.41346 4.38449 7.50696C4.50421 7.60045 4.64365 7.66545 4.79223 7.69701C4.94081 7.72857 5.09463 7.72587 5.24201 7.68911L8.00001 7.00011V19.0001C8.00001 19.2653 8.10537 19.5197 8.29291 19.7072C8.48044 19.8948 8.7348 20.0001 9.00001 20.0001H19C19.2652 20.0001 19.5196 19.8948 19.7071 19.7072C19.8947 19.5197 20 19.2653 20 19.0001V7.00011L22.758 7.68911C22.9054 7.72587 23.0592 7.72857 23.2078 7.69701C23.3564 7.66545 23.4958 7.60045 23.6155 7.50696C23.7352 7.41346 23.8321 7.29392 23.8987 7.15741C23.9653 7.0209 24 6.87101 24 6.71911V3.00311C24.0011 2.79303 23.9354 2.58803 23.8125 2.41766C23.6896 2.24728 23.5157 2.12034 23.316 2.05511V2.05511Z" fill="#328AFF"/>
</g>
<defs>
<filter id="filter0_d_19_19" x="0" y="0" width="28" height="28.0001" filterUnits="userSpaceOnUse" color-interpolation-filters="sRGB">
<feFlood flood-opacity="0" result="BackgroundImageFix"/>
<feColorMatrix in="SourceAlpha" type="matrix" values="0 0 0 0 0 0 0 0 0 0 0 0 0 0 0 0 0 0 127 0" result="hardAlpha"/>
<feOffset dy="4"/>
<feGaussianBlur stdDeviation="2"/>
<feComposite in2="hardAlpha" operator="out"/>
<feColorMatrix type="matrix" values="0 0 0 0 0 0 0 0 0 0 0 0 0 0 0 0 0 0 0.25 0"/>
<feBlend mode="normal" in2="BackgroundImageFix" result="effect1_dropShadow_19_19"/>
<feBlend mode="normal" in="SourceGraphic" in2="effect1_dropShadow_19_19" result="shape"/>
</filter>
</defs>
</svg>
