<svg width="24" height="22" viewBox="0 0 24 22" fill="none" xmlns="http://www.w3.org/2000/svg">
<g filter="url(#filter0_d_19_17)">
<path d="M9.17 14.83C9.92131 15.5792 10.939 15.9998 12 15.9998C13.061 15.9998 14.0787 15.5792 14.83 14.83C15.5792 14.0787 15.9998 13.061 15.9998 12C15.9998 10.939 15.5792 9.92131 14.83 9.17L9.17 14.83ZM18 0.00999999L6 0C4.89 0 4 0.89 4 2V18C4 19.11 4.89 20 6 20H18C19.11 20 20 19.11 20 18V2C20 0.89 19.11 0.00999999 18 0.00999999ZM10 2C10.55 2 11 2.45 11 3C11 3.55 10.55 4 10 4C9.45 4 9 3.55 9 3C9 2.45 9.45 2 10 2ZM7 2C7.55 2 8 2.45 8 3C8 3.55 7.55 4 7 4C6.45 4 6 3.55 6 3C6 2.45 6.45 2 7 2ZM12 18C8.69 18 6 15.31 6 12C6 8.69 8.69 6 12 6C15.31 6 18 8.69 18 12C18 15.31 15.31 18 12 18Z" fill="#328AFF"/>
</g>
<defs>
<filter id="filter0_d_19_17" x="0" y="0" width="24" height="28" filterUnits="userSpaceOnUse" color-interpolation-filters="sRGB">
<feFlood flood-opacity="0" result="BackgroundImageFix"/>
<feColorMatrix in="SourceAlpha" type="matrix" values="0 0 0 0 0 0 0 0 0 0 0 0 0 0 0 0 0 0 127 0" result="hardAlpha"/>
<feOffset dy="4"/>
<feGaussianBlur stdDeviation="2"/>
<feComposite in2="hardAlpha" operator="out"/>
<feColorMatrix type="matrix" values="0 0 0 0 0 0 0 0 0 0 0 0 0 0 0 0 0 0 0.25 0"/>
<feBlend mode="normal" in2="BackgroundImageFix" result="effect1_dropShadow_19_17"/>
<feBlend mode="normal" in="SourceGraphic" in2="effect1_dropShadow_19_17" result="shape"/>
</filter>
</defs>
</svg>
